<svg xmlns="http://www.w3.org/2000/svg" xmlns:xlink="http://www.w3.org/1999/xlink" version="1.1" x="0px" y="0px" viewBox="0 0 100 125" style="enable-background:new 0 0 100 100;" xml:space="preserve"><g><path d="M54.3,24.8c-0.1-0.2-0.1-0.4-0.2-0.7c-0.2-0.2-0.5-0.4-0.9-0.4c-0.4,0-0.7,0-0.9,0.3c-0.1,0.2-0.2,0.4-0.4,0.6   c-6.7,11-34.4,57-34.4,57.6c-0.3,7,14.3,11.2,26.9,12.8c6.8,0.8,13.4,0.9,18.5,0.3c6.5-0.9,10-3,10.7-6.1   C73.9,88.4,58.2,37.1,54.3,24.8z M47.5,44.2c1.9,1.9,4.3,3.6,7.5,4.6c1.1,3.5,2.2,7.4,3.4,11.4c-1.2,0-2.4-0.2-3.6-0.4   c-4.9-1.1-9.4-3.4-12.8-6.5C44.1,50,46,46.8,47.5,44.2z M51.9,83.9c-7.7-2.2-15.2-5.8-21.6-10.8c1.9-3.1,4.1-6.8,6.3-10.5   c4.9,4,10.8,7,16.9,8.7c1.3,0.4,2.6,0.7,3.8,0.9c1.7,0.3,3.4,0.5,5,0.6c1.8,5.9,3.2,10.7,3.9,12.8C61.8,85.7,57,85.2,51.9,83.9z"/><g><path d="M71.1,27c-0.9,1.3-2.2,2.3-3.7,3c-0.2,0.1-0.5,0.1-0.8,0c-0.1,0-0.2,0-0.4-0.1c-0.4-0.1-0.5-0.6-0.6-0.9    c-0.1-0.4-0.1-0.8-0.2-1.2c-0.6-2.2-2.5-3.8-4.9-4.4c-0.9-0.2-1.8-0.2-2.6-0.1c-0.5,0-1.1-0.2-1.2-0.6c-0.2-0.4-0.1-0.9,0.3-1.3    c1-0.7,2.2-1.2,3.5-1.5c1.3-0.2,2.8-0.3,4,0.1c3.2,0.8,5.8,3,6.6,6c0.1,0.1,0.1,0.2,0.1,0.3C71.4,26.5,71.2,26.7,71.1,27z"/></g><g><path d="M51.1,21.3c-0.2,0.6-0.8,1-1.4,0.8l0,0c-0.3,0-0.5-0.4-0.6-0.6c-0.3-0.5-0.8-1-1.3-1.5c-0.8-0.7-1.9-1.2-3-1.6    c-2.6-0.7-5.3-0.1-7.3,1.4c-0.3,0.3-0.6,0.3-1,0.2c-0.2,0-0.4-0.1-0.5-0.3c-1-0.8-1.7-1.7-2.3-2.8c-0.2-0.3-0.1-0.8,0.1-1.1    c2.5-2.6,6.5-3.6,10.3-2.6c2.7,0.7,5,2.4,6.3,4.8c0.4,0.8,0.7,1.6,0.9,2.4C51.2,20.8,51.3,21.1,51.1,21.3z"/></g><g><path d="M55.3,20.2c-0.3,0.3-0.8,0.4-1.1,0.3c-0.1,0-0.3,0-0.4-0.1c-0.5-0.3-0.7-0.9-0.4-1.3c0.8-1.5,0.9-3.3,0.4-4.9    c-0.8-2.5-3-4.6-5.8-5.3c-0.4-0.1-0.8-0.4-0.8-0.8c-0.1-0.4,0.1-0.8,0.3-1c1.1-0.8,2.3-1.4,3.7-1.8c0.3-0.1,0.6,0,0.9,0.1    c2.8,1.2,4.7,3.5,5.6,6.1C58.7,14.6,57.8,17.8,55.3,20.2z"/></g></g></svg>